<?xml version="1.0" standalone="no"?>
<!DOCTYPE svg PUBLIC "-//W3C//DTD SVG 20010904//EN"
 "http://www.w3.org/TR/2001/REC-SVG-20010904/DTD/svg10.dtd">
<svg version="1.0" xmlns="http://www.w3.org/2000/svg"
 width="1684.000000pt" height="880.000000pt" viewBox="0 0 1684.000000 880.000000"
 preserveAspectRatio="xMidYMid meet">

<g transform="translate(0.000000,880.000000) scale(0.100000,-0.100000)"
fill="#000000" stroke="none">
<path d="M14938 7653 c-8 -10 -46 -58 -83 -108 -329 -433 -765 -770 -1429
-1102 -297 -149 -446 -213 -776 -333 -886 -323 -1767 -529 -2910 -679 -379
-50 -971 -104 -1225 -112 -33 -1 -63 -4 -67 -6 -3 -2 11 -29 32 -61 53 -79
151 -260 232 -430 189 -392 259 -652 261 -972 3 -282 -49 -492 -164 -661 -94
-140 -292 -349 -469 -495 -300 -249 -563 -414 -810 -510 -109 -42 -62 -42 132
1 572 127 915 257 1233 468 480 320 708 709 740 1262 10 173 -33 570 -80 745
-8 30 -15 56 -15 57 0 8 23 13 1150 233 1165 228 1653 356 2367 621 752 279
1316 664 1602 1091 134 201 230 435 265 643 17 99 40 354 33 361 -2 2 -11 -4
-19 -13z"/>
<path d="M13795 5490 c-346 -132 -799 -275 -1205 -379 -374 -95 -707 -170
-1250 -281 -460 -93 -1005 -182 -1483 -241 l-99 -12 6 -31 c3 -17 15 -128 26
-246 12 -118 23 -220 25 -227 3 -8 20 -11 52 -8 26 3 172 14 323 25 1012 76
1517 144 2100 286 551 134 928 297 1225 529 148 116 277 265 347 402 34 64 88
203 88 224 0 15 -20 10 -155 -41z"/>
<path d="M5860 5494 c0 -23 64 -82 150 -139 111 -73 152 -116 180 -193 33 -87
25 -275 -17 -409 -9 -29 -14 -56 -10 -59 4 -4 25 10 48 30 89 81 232 163 530
305 134 64 178 90 228 137 34 31 71 75 82 96 23 44 63 197 54 206 -3 3 -18 -4
-33 -16 -80 -64 -153 -85 -387 -112 -172 -19 -267 -43 -317 -80 -36 -26 -43
-25 -67 9 -37 52 -120 103 -244 151 -67 26 -139 55 -159 64 -21 9 -38 13 -38
10z"/>
<path d="M5940 5213 c0 -26 -53 -163 -63 -163 -5 0 -23 11 -40 24 -87 65 -195
72 -355 22 -142 -45 -171 -50 -219 -37 -53 14 -124 69 -148 115 -27 49 -45 47
-46 -6 -4 -166 29 -210 228 -312 120 -61 221 -134 243 -176 8 -15 3 -30 -19
-67 -15 -26 -32 -47 -37 -46 -5 1 -79 29 -164 62 -85 32 -321 122 -524 200
-241 93 -373 138 -379 132 -7 -7 -5 -18 6 -34 18 -27 221 -198 610 -512 147
-119 267 -220 267 -224 0 -5 -22 -41 -49 -82 -70 -106 -113 -194 -118 -242 -4
-36 0 -48 26 -80 29 -37 30 -40 16 -75 -8 -21 -55 -143 -106 -272 -335 -859
-335 -858 -290 -984 29 -82 181 -306 217 -320 8 -3 96 -6 195 -6 146 -1 185 2
204 14 31 21 86 114 126 216 32 81 39 91 174 230 78 80 218 226 312 325 94 99
178 187 187 194 14 12 28 10 94 -12 42 -14 105 -28 140 -32 l62 -7 0 -41 c0
-68 -29 -225 -56 -306 -63 -191 -149 -322 -419 -647 -92 -109 -199 -242 -240
-295 -196 -255 -361 -546 -430 -759 -43 -134 -89 -319 -82 -326 3 -4 43 24 89
60 386 310 772 479 1325 580 257 46 436 59 768 53 165 -3 338 -10 385 -16 47
-6 121 -16 165 -22 124 -16 401 -68 488 -91 42 -12 80 -18 85 -13 11 12 -170
178 -308 281 -212 159 -514 302 -826 393 -91 27 -308 71 -347 71 -28 0 -27 3
59 93 171 179 266 358 320 607 26 117 26 415 0 545 -37 190 -73 295 -162 475
-69 138 -126 230 -144 230 -4 0 4 -30 17 -67 54 -149 93 -374 93 -543 0 -327
-127 -643 -377 -941 -75 -88 -227 -236 -333 -324 -25 -20 -65 -54 -90 -75 -57
-48 -376 -291 -416 -316 -29 -19 -29 -18 -14 1 8 11 43 47 78 79 91 87 245
262 340 389 227 302 336 549 383 867 17 114 15 349 -4 490 -18 132 -53 300
-65 312 -5 5 -14 -36 -20 -91 -11 -91 -61 -274 -82 -295 -4 -4 -6 36 -3 90 8
152 -21 245 -128 400 -53 76 -118 144 -104 109 102 -269 101 -500 -2 -608 -36
-36 -59 -32 -245 49 -81 35 -176 71 -210 80 -79 20 -181 14 -258 -16 -57 -22
-167 -97 -183 -125 -7 -14 -4 -14 30 1 96 42 206 75 241 72 l37 -3 0 -55 c0
-46 -7 -65 -37 -116 l-37 -60 -245 -138 c-153 -86 -251 -147 -261 -163 -25
-37 -14 -96 36 -201 38 -81 40 -91 34 -147 -8 -76 -27 -115 -76 -160 -57 -51
-62 -47 -54 39 9 99 2 129 -38 151 -54 29 -77 18 -130 -62 -31 -47 -56 -75
-72 -79 -35 -9 -82 24 -107 74 -38 79 -27 125 122 502 246 623 273 699 260
730 -24 58 4 128 135 335 141 224 268 453 319 578 8 20 22 37 30 37 19 0 132
-97 174 -149 18 -23 37 -41 42 -41 15 0 81 148 102 233 16 64 19 99 15 162 -6
76 -40 204 -72 266 -17 32 -45 39 -45 12z m1250 -3533 c63 -6 158 -18 210 -26
107 -18 310 -80 310 -95 0 -11 7 -12 -86 5 -185 34 -275 41 -534 41 -270 0
-376 -8 -588 -46 -250 -44 -488 -134 -666 -249 -58 -38 -106 -66 -105 -62 0
11 111 101 181 148 79 52 224 126 315 160 274 105 644 152 963 124z"/>
<path d="M6960 5014 c-96 -11 -191 -28 -250 -46 -74 -23 -220 -87 -220 -97 0
-4 17 -13 38 -20 63 -23 102 -41 269 -133 l161 -88 49 12 c35 9 160 13 453 13
388 1 408 2 470 23 73 24 139 64 187 111 35 35 83 124 83 153 0 19 -25 25 -35
8 -13 -21 -86 -50 -154 -61 -89 -13 -196 -1 -410 47 -270 60 -522 91 -641 78z"/>
<path d="M7110 4591 l-84 -6 29 -23 c17 -13 86 -64 154 -114 68 -50 162 -128
208 -173 l85 -83 148 6 c177 6 332 -9 485 -48 130 -33 285 -89 374 -136 36
-18 66 -32 69 -30 14 14 -114 180 -209 272 -175 168 -379 265 -656 314 -127
23 -438 34 -603 21z"/>
<path d="M12695 4203 c-741 -151 -1812 -280 -2679 -323 -103 -5 -189 -10 -191
-12 -3 -4 -92 -383 -100 -429 l-7 -36 104 -7 c728 -44 1336 -31 1708 39 496
93 871 297 1165 634 99 113 118 138 113 149 -2 4 -52 -2 -113 -15z"/>
<path d="M7540 4139 c0 -6 22 -41 49 -78 87 -118 163 -243 223 -368 33 -67 65
-126 71 -131 7 -5 62 -14 122 -20 61 -6 151 -23 200 -37 152 -44 333 -146 425
-240 44 -44 70 -57 70 -32 0 25 -30 154 -49 208 -49 142 -125 263 -236 375
-156 156 -361 265 -582 308 -111 21 -293 31 -293 15z"/>
<path d="M5550 3928 c-25 -22 -80 -57 -124 -76 l-78 -36 6 -46 c3 -25 15 -57
26 -72 11 -15 20 -35 20 -46 0 -17 -82 -262 -95 -282 -3 -6 -1 -10 5 -10 14 0
127 154 194 267 60 99 100 204 111 291 9 65 -3 67 -65 10z"/>
<path d="M7912 3479 c16 -42 90 -296 107 -370 26 -107 57 -291 67 -387 3 -40
11 -75 16 -78 15 -9 236 182 386 333 78 80 142 149 142 153 0 14 -173 162
-241 206 -115 75 -258 124 -433 150 -40 5 -48 4 -44 -7z"/>
<path d="M9607 3128 c-36 -46 -106 -130 -156 -188 -50 -57 -91 -107 -91 -110
0 -4 42 -12 93 -18 50 -6 151 -21 224 -32 450 -68 950 -91 1202 -55 339 49
614 170 816 358 l69 64 -634 -1 c-558 0 -672 3 -940 22 -168 12 -343 26 -390
32 -130 15 -120 19 -193 -72z"/>
<path d="M9265 2641 c-14 -13 -250 -143 -369 -203 -56 -28 -95 -53 -90 -58 5
-5 50 -16 99 -24 50 -8 198 -33 330 -55 426 -72 551 -85 825 -85 234 0 249 1
342 26 113 31 239 88 329 148 76 51 179 138 179 151 0 5 -134 9 -313 9 -178 0
-406 7 -528 15 -221 16 -623 59 -694 75 -52 12 -99 12 -110 1z"/>
<path d="M8589 2275 c-6 -5 -282 -89 -379 -115 l-65 -17 35 -16 c19 -9 116
-48 215 -86 493 -190 743 -253 1010 -254 242 0 388 50 595 205 l85 63 -223 12
c-373 20 -612 57 -1030 159 -234 56 -236 57 -243 49z"/>
<path d="M7840 2034 c-85 -24 -164 -44 -177 -44 -54 0 -21 -24 144 -108 395
-199 569 -270 776 -321 189 -47 296 -56 426 -37 205 30 430 126 295 126 -18 0
-94 12 -166 26 -357 69 -652 171 -1000 345 -65 33 -123 59 -130 58 -7 0 -83
-20 -168 -45z"/>
</g>
</svg>
